<svg id="visual" viewBox="0 0 540 960" width="540" height="960" xmlns="http://www.w3.org/2000/svg" xmlns:xlink="http://www.w3.org/1999/xlink" version="1.1"><rect x="0" y="0" width="540" height="960" fill="#fff"></rect><defs><linearGradient id="grad1_0" x1="0%" y1="100%" x2="100%" y2="0%"><stop offset="30%" stop-color="#1e3a8a" stop-opacity="1"></stop><stop offset="70%" stop-color="#1e3a8a" stop-opacity="1"></stop></linearGradient></defs><defs><linearGradient id="grad1_1" x1="0%" y1="100%" x2="100%" y2="0%"><stop offset="30%" stop-color="#1e3a8a" stop-opacity="1"></stop><stop offset="70%" stop-color="#9696c4" stop-opacity="1"></stop></linearGradient></defs><defs><linearGradient id="grad1_2" x1="0%" y1="100%" x2="100%" y2="0%"><stop offset="30%" stop-color="#ffffff" stop-opacity="1"></stop><stop offset="70%" stop-color="#9696c4" stop-opacity="1"></stop></linearGradient></defs><defs><linearGradient id="grad2_0" x1="0%" y1="100%" x2="100%" y2="0%"><stop offset="30%" stop-color="#1e3a8a" stop-opacity="1"></stop><stop offset="70%" stop-color="#1e3a8a" stop-opacity="1"></stop></linearGradient></defs><defs><linearGradient id="grad2_1" x1="0%" y1="100%" x2="100%" y2="0%"><stop offset="30%" stop-color="#9696c4" stop-opacity="1"></stop><stop offset="70%" stop-color="#1e3a8a" stop-opacity="1"></stop></linearGradient></defs><defs><linearGradient id="grad2_2" x1="0%" y1="100%" x2="100%" y2="0%"><stop offset="30%" stop-color="#9696c4" stop-opacity="1"></stop><stop offset="70%" stop-color="#ffffff" stop-opacity="1"></stop></linearGradient></defs><g transform="translate(540, 960)"><path d="M-324 0C-291.7 -18.1 -259.3 -36.1 -252.5 -57.6C-245.7 -79.2 -264.4 -104.2 -270.3 -130.2C-276.1 -156.2 -269.1 -183.1 -253.3 -202C-237.5 -220.9 -213.1 -231.6 -188.3 -236.1C-163.5 -240.6 -138.4 -238.8 -118.5 -246C-98.5 -253.1 -83.6 -269.2 -64.8 -283.7C-45.9 -298.2 -22.9 -311.1 0 -324L0 0Z" fill="#cac9e1"></path><path d="M-216 0C-194.4 -12 -172.9 -24.1 -168.3 -38.4C-163.8 -52.8 -176.3 -69.4 -180.2 -86.8C-184.1 -104.1 -179.4 -122.1 -168.9 -134.7C-158.4 -147.3 -142.1 -154.4 -125.5 -157.4C-109 -160.4 -92.3 -159.2 -79 -164C-65.7 -168.7 -55.8 -179.5 -43.2 -189.1C-30.6 -198.8 -15.3 -207.4 0 -216L0 0Z" fill="#6066a7"></path><path d="M-108 0C-97.2 -6 -86.4 -12 -84.2 -19.2C-81.9 -26.4 -88.1 -34.7 -90.1 -43.4C-92 -52.1 -89.7 -61 -84.4 -67.3C-79.2 -73.6 -71 -77.2 -62.8 -78.7C-54.5 -80.2 -46.1 -79.6 -39.5 -82C-32.8 -84.4 -27.9 -89.7 -21.6 -94.6C-15.3 -99.4 -7.6 -103.7 0 -108L0 0Z" fill="#1e3a8a"></path></g><g transform="translate(0, 0)"><path d="M324 0C299.5 19.5 275.1 39.1 266.2 60.7C257.2 82.4 263.8 106.3 256.8 123.7C249.7 141 229 152 219.7 175.2C210.4 198.4 212.5 234 197 247.1C181.5 260.1 148.4 250.8 125.8 261.3C103.3 271.8 91.3 302.1 72.1 315.9C52.9 329.6 26.4 326.8 0 324L0 0Z" fill="#cac9e1"></path><path d="M216 0C199.7 13 183.4 26 177.4 40.5C171.5 55 175.9 70.8 171.2 82.4C166.5 94 152.7 101.3 146.5 116.8C140.3 132.3 141.7 156 131.3 164.7C121 173.4 98.9 167.2 83.9 174.2C68.8 181.2 60.9 201.4 48.1 210.6C35.3 219.8 17.6 217.9 0 216L0 0Z" fill="#6066a7"></path><path d="M108 0C99.8 6.5 91.7 13 88.7 20.2C85.7 27.5 87.9 35.4 85.6 41.2C83.2 47 76.3 50.7 73.2 58.4C70.1 66.1 70.8 78 65.7 82.4C60.5 86.7 49.5 83.6 41.9 87.1C34.4 90.6 30.4 100.7 24 105.3C17.6 109.9 8.8 108.9 0 108L0 0Z" fill="#1e3a8a"></path></g></svg>