<svg width="130" height="130" viewBox="0 0 130 130" fill="none" xmlns="http://www.w3.org/2000/svg">
<path d="M83.8414 12L14 89.6943C17.8113 98.053 23.5633 105.361 30.7685 111L106 26.2669C99.8269 19.8208 92.2356 14.9331 83.8414 12Z" fill="#F2F2F2"/>
<path d="M65 122C33.5702 122 8 96.4299 8 64.9999C8 33.5701 33.5702 8 65 8C96.4298 8 122 33.5701 122 64.9999C122 96.4299 96.4298 122 65 122ZM65 8.39721C33.7891 8.39721 8.39721 33.7891 8.39721 64.9999C8.39721 96.2107 33.7891 121.603 65 121.603C96.2109 121.603 121.603 96.2107 121.603 64.9999C121.603 33.7891 96.2109 8.39721 65 8.39721Z" fill="black"/>
<path d="M26 65C26 75.6087 30.1089 85.7828 37.4228 93.2843C44.7368 100.786 54.6566 105 65 105V25C54.6566 25 44.7368 29.2143 37.4228 36.7157C30.1089 44.2172 26 54.3913 26 65Z" fill="#FA7998"/>
<path d="M65 25V105C75.6087 105 85.7828 100.786 93.2843 93.2843C100.786 85.7828 105 75.6087 105 65C105 54.3913 100.786 44.2172 93.2843 36.7157C85.7828 29.2143 75.6087 25 65 25Z" fill="#CB6BE6"/>
<path d="M65.5 73C68.5376 73 71 70.5376 71 67.5C71 64.4624 68.5376 62 65.5 62C62.4624 62 60 64.4624 60 67.5C60 70.5376 62.4624 73 65.5 73Z" fill="#2F2E41"/>
<path d="M65.5 47L66.75 58L68 69H65.5H63L64.25 58L65.5 47Z" fill="#2F2E41"/>
<path d="M99 67.716L80.4998 68.3582L62 69L62.0102 67.5002L62.0203 66L80.51 66.858L99 67.716Z" fill="#2F2E41"/>
<path d="M124.392 70C123.464 70 123.089 69.3637 122.615 68.5582C122.496 68.357 122.368 68.1389 122.219 67.9082L122.557 67.6918C122.709 67.9273 122.84 68.15 122.961 68.3555C123.433 69.158 123.693 69.6 124.392 69.6C126.712 69.6 128.599 65.742 128.599 61C128.599 56.258 126.712 52.4 124.392 52.4C123.052 52.4 122.121 53.225 121.372 55.075L121 54.925C121.819 52.9021 122.865 52 124.392 52C126.933 52 129 56.0373 129 61C129 65.9627 126.933 70 124.392 70Z" fill="black"/>
</svg>
