<svg width="150" height="150" viewBox="0 0 150 150" fill="none" xmlns="http://www.w3.org/2000/svg">
<path d="M75.3111 131.998C73.5373 131.993 71.7712 131.765 70.0542 131.321L69.7158 131.228L69.4018 131.071C58.0523 125.405 48.4773 117.921 40.9428 108.826C34.7058 101.253 29.8431 92.6549 26.5735 83.418C22.6635 72.3593 20.7824 60.6906 21.02 48.9689C21.0248 48.7228 21.0289 48.5329 21.0289 48.402C21.0289 42.704 24.2051 37.7044 29.1207 35.6649C32.8829 34.1039 67.0415 20.1329 69.5095 19.1235C74.1575 16.8044 79.1161 18.74 79.9096 19.0785C81.6895 19.8032 113.267 32.6642 120.091 35.8998C127.124 39.2345 129 45.2253 129 48.2393C129 61.8849 126.627 74.6377 121.946 86.1436C118.166 95.4568 112.808 104.055 106.106 111.563C93.1762 126.052 80.2425 131.189 80.1177 131.234C78.5719 131.764 76.9456 132.022 75.3111 131.998ZM72.2696 124.496C73.3909 124.747 75.9725 125.122 77.6552 124.511C79.7928 123.735 90.618 118.145 100.734 106.809C114.711 91.1467 121.802 71.458 121.813 48.2897C121.788 47.8203 121.453 44.4725 117.001 42.3615C110.309 39.1885 77.4872 25.8243 77.1564 25.6896L77.0657 25.6513C76.3779 25.3643 74.1889 24.7597 72.6799 25.5471L72.3778 25.6873C72.0119 25.837 35.7522 40.6667 31.885 42.2711C29.1799 43.3935 28.216 46.1741 28.216 48.402C28.216 48.5648 28.2118 48.8016 28.2058 49.1077C27.8968 64.9604 31.5807 103.969 72.2696 124.496Z" fill="#3F3D56"/>
<path d="M71.047 22.789C71.047 22.789 34.7543 37.6357 30.8658 39.2495C26.9773 40.8633 25.0331 44.7363 25.0331 48.6094C25.0331 52.4825 22.1167 103.021 71.047 127.456C71.047 127.456 75.4879 128.68 78.8572 127.456C82.2265 126.232 125 105.576 125 48.448C125 48.448 125 42.6384 118.195 39.4109C111.39 36.1833 78.4898 22.789 78.4898 22.789C78.4898 22.789 74.4495 21.0138 71.047 22.789Z" fill="#CB6BE6"/>
<path opacity="0.1" d="M75 34V114C75 114 38.6807 96.2673 39.0021 49.6483L75 34Z" fill="black"/>
<path d="M75.6006 91L64 75.9421L70.7462 70.6452L76.2391 77.7748L94.7949 58L101 63.935L75.6006 91Z" fill="white"/>
</svg>
